<?xml version="1.0" encoding="UTF-8"?>
<svg width="32px" height="32px" viewBox="0 0 32 32" version="1.1" xmlns="http://www.w3.org/2000/svg" xmlns:xlink="http://www.w3.org/1999/xlink">
    <!-- Generator: Sketch 61.2 (89653) - https://sketch.com -->
    <title>Icon</title>
    <desc>Created with Sketch.</desc>
    <defs>
        <linearGradient x1="50%" y1="-106.547591%" x2="50%" y2="214.493679%" id="linearGradient-1">
            <stop stop-color="#DA1212" offset="0%"></stop>
            <stop stop-color="#FF0000" offset="100%"></stop>
        </linearGradient>
        <linearGradient x1="50%" y1="0%" x2="50%" y2="100%" id="linearGradient-2">
            <stop stop-color="#7D0808" offset="0%"></stop>
            <stop stop-color="#000000" stop-opacity="0.5" offset="100%"></stop>
        </linearGradient>
        <rect id="path-3" x="22" y="8" width="2" height="6" rx="1"></rect>
        <linearGradient x1="77.5544835%" y1="20.3859924%" x2="1.20799504%" y2="76.7011834%" id="linearGradient-4">
            <stop stop-color="#7D0808" offset="0%"></stop>
            <stop stop-color="#000000" stop-opacity="0.5" offset="100%"></stop>
        </linearGradient>
        <path d="M16,9 C13.5852123,9 10.0770748,10.0933499 5.47558729,12.2800497 L5.475591,12.2800575 C4.55543607,12.7173297 3.92007738,13.5916944 3.78840571,14.6019194 C3.2628019,18.6345117 3,21.1005385 3,22 C3,22.617506 3.12386417,23.2301828 3.3715925,23.8380304 L3.37159141,23.8380308 C3.6581053,24.541046 4.20049215,25.1092963 4.88940841,25.4282241 C8.59293894,27.1427414 12.2964695,28 16,28 C19.7428222,28 23.4856445,27.1244551 27.2284667,25.3733653 L27.2284694,25.3733712 C28.1333845,24.9500042 28.7681702,24.1039457 28.9215875,23.1167405 C28.9738625,22.7803627 29,22.4081159 29,22 C29,20.7189482 28.7424684,18.2461229 28.2274052,14.581524 L28.2273923,14.5815258 C28.0871273,13.5835615 27.4551623,12.7226998 26.5450711,12.2898707 C21.9334238,10.0966236 18.4184001,9 16,9 Z" id="path-5"></path>
    </defs>
    <g id="Icon" stroke="none" stroke-width="1" fill="none" fill-rule="evenodd">
        <path d="M21.1698666,5 C20.5594443,5.66666667 21.6927264,6.33333333 23.0011335,7 C24.2837755,6.3464613 25.4428227,5.66666667 24.8324004,5" id="Path-3" stroke="url(#linearGradient-1)" stroke-width="4.8" stroke-linecap="round" stroke-linejoin="round"></path>
        <rect id="Rectangle" fill-opacity="0.5" fill="#FFFFFF" x="20.5" y="6.5" width="5" height="5" rx="2.5"></rect>
        <rect id="Rectangle" fill-opacity="0.5" fill="#FFFFFF" x="21.5" y="7.5" width="3" height="3" rx="1.5"></rect>
        <g id="Rectangle">
            <use fill="#000000" xlink:href="#path-3"></use>
            <use fill="url(#linearGradient-2)" xlink:href="#path-3"></use>
        </g>
        <g id="Path-2">
            <use fill="#000000" xlink:href="#path-5"></use>
            <use fill="url(#linearGradient-4)" xlink:href="#path-5"></use>
        </g>
        <circle id="Oval" fill="#FFFFFF" cx="11" cy="18" r="4"></circle>
        <circle id="Oval" fill="#FFFFFF" cx="21" cy="18" r="4"></circle>
    </g>
</svg>