<?xml version="1.0" encoding="UTF-8"?>
<svg width="48px" height="48px" viewBox="0 0 48 48" version="1.1" xmlns="http://www.w3.org/2000/svg" xmlns:xlink="http://www.w3.org/1999/xlink">
    <!-- Generator: Sketch 57.1 (83088) - https://sketch.com -->
    <title>External</title>
    <desc>Created with Sketch.</desc>
    <defs>
        <linearGradient x1="100%" y1="0%" x2="0%" y2="100%" id="linearGradient-1">
            <stop stop-color="#5200FF" offset="0%"></stop>
            <stop stop-color="#FF05CB" offset="100%"></stop>
        </linearGradient>
        <linearGradient x1="100%" y1="50%" x2="0%" y2="50%" id="linearGradient-2">
            <stop stop-color="#F83A5E" offset="0%"></stop>
            <stop stop-color="#CC32CD" offset="100%"></stop>
        </linearGradient>
        <linearGradient x1="99.446568%" y1="0%" x2="0.553431969%" y2="100%" id="linearGradient-3">
            <stop stop-color="#BA1313" offset="0%"></stop>
            <stop stop-color="#FF05CB" offset="100%"></stop>
        </linearGradient>
    </defs>
    <g id="External" stroke="none" stroke-width="1" fill="none" fill-rule="evenodd">
        <g id="Group-3">
            <rect id="Rectangle" fill-opacity="0.2" fill="url(#linearGradient-1)" x="3" y="3" width="42" height="42" rx="12"></rect>
            <path d="M20,3 C20,4.65685425 18.6568542,6 17,6 L13.2,6 L13.2,6 C9.2235498,6 6,9.2235498 6,13.2 L6,34.8 C6,38.7764502 9.2235498,42 13.2,42 L34.8,42 C38.7764502,42 42,38.7764502 42,34.8 L42,31 C42,29.3431458 43.3431458,28 45,28 C46.6568542,28 48,29.3431458 48,31 L48,36 L48,36 C48,42.627417 42.627417,48 36,48 L12,48 C5.372583,48 0,42.627417 0,36 L0,12 C0,5.372583 5.372583,0 12,0 L17,0 C18.6568542,-3.04359188e-16 20,1.34314575 20,3 Z" id="Path" fill="url(#linearGradient-2)" fill-rule="nonzero"></path>
            <path d="M45,1.42108547e-14 C46.6568542,1.39064955e-14 48,1.34314575 48,3 L48,17 C48,18.6568542 46.6568542,20 45,20 C43.3431458,20 42,18.6568542 42,17 L41.9990678,10.426 L20.1923882,32.2340187 C19.0208153,33.4055916 17.1213203,33.4055916 15.9497475,32.2340187 C14.7781746,31.0624458 14.7781746,29.1629509 15.9497475,27.991378 L37.9400678,6 L31,6 C29.3431458,6 28,4.65685425 28,3 C28,1.34314575 29.3431458,1.45152139e-14 31,1.42108547e-14 L45,1.42108547e-14 L45,1.42108547e-14 Z" id="Combined-Shape" fill="url(#linearGradient-3)"></path>
        </g>
    </g>
</svg>