<?xml version="1.0" encoding="UTF-8"?>
<svg width="2rem" height="2rem" viewBox="0 0 56 56" version="1.1" xmlns="http://www.w3.org/2000/svg" xmlns:xlink="http://www.w3.org/1999/xlink">
    <!-- Generator: Sketch 56.3 (81716) - https://sketch.com -->
    <title>Link</title>
    <desc>Created with Sketch.</desc>
    <defs>
        <linearGradient x1="100%" y1="0%" x2="0%" y2="100%" id="linearGradient-1">
            <stop stop-color="#5200FF" offset="0%"></stop>
            <stop stop-color="#FF05CB" offset="100%"></stop>
        </linearGradient>
        <linearGradient x1="79.2387543%" y1="0%" x2="20.7612457%" y2="100%" id="linearGradient-2">
            <stop stop-color="#FF1313" offset="0%"></stop>
            <stop stop-color="#9757FF" offset="100%"></stop>
        </linearGradient>
    </defs>
    <g id="Link" stroke="none" stroke-width="1" fill="none" fill-rule="evenodd">
        <g id="Group-3">
            <rect id="Rectangle" fill-opacity="0.2" fill="url(#linearGradient-1)" x="7" y="7" width="42" height="42" rx="12"></rect>
            <path d="M28.6482323,36.7487822 L28.6482323,36.2132034 C28.6482323,34.1842529 29.6553204,32.3905204 31.1968882,31.3046142 C32.2154241,31.8829515 33.393261,32.2132034 34.6482323,32.2132034 C38.5142255,32.2132034 41.6482323,29.0791967 41.6482323,25.2132034 L41.6482323,17.2132034 C41.6482323,13.3472102 38.5142255,10.2132034 34.6482323,10.2132034 C30.782239,10.2132034 27.6482323,13.3472102 27.6482323,17.2132034 L27.6482323,24.0861542 C25.43228,25.3680134 23.6002858,27.2398062 22.3670013,29.4867812 C21.9013037,28.1483269 21.6482323,26.7103192 21.6482323,25.2132034 L21.6482323,17.2132034 C21.6482323,10.0335017 27.4685305,4.21320344 34.6482323,4.21320344 C41.827934,4.21320344 47.6482323,10.0335017 47.6482323,17.2132034 L47.6482323,25.2132034 C47.6482323,32.3929052 41.827934,38.2132034 34.6482323,38.2132034 C32.483979,38.2132034 30.4432498,37.6843338 28.6482323,36.7487822 Z" id="Combined-Shape" fill="url(#linearGradient-2)" fill-rule="nonzero" transform="translate(34.648232, 21.213203) rotate(45.000000) translate(-34.648232, -21.213203) "></path>
            <path d="M15.2132034,50.3223753 L15.2132034,49.7867966 C15.2132034,47.757846 16.2202915,45.9641135 17.7618594,44.8782073 C18.7803953,45.4565446 19.9582321,45.7867966 21.2132034,45.7867966 C25.0791967,45.7867966 28.2132034,42.6527898 28.2132034,38.7867966 L28.2132034,30.7867966 C28.2132034,26.9208033 25.0791967,23.7867966 21.2132034,23.7867966 C17.3472102,23.7867966 14.2132034,26.9208033 14.2132034,30.7867966 L14.2132034,37.6597473 C11.9972511,38.9416065 10.165257,40.8133993 8.93197246,43.0603744 C8.4662749,41.72192 8.21320344,40.2839123 8.21320344,38.7867966 L8.21320344,30.7867966 C8.21320344,23.6070948 14.0335017,17.7867966 21.2132034,17.7867966 C28.3929052,17.7867966 34.2132034,23.6070948 34.2132034,30.7867966 L34.2132034,38.7867966 C34.2132034,45.9664983 28.3929052,51.7867966 21.2132034,51.7867966 C19.0489501,51.7867966 17.0082209,51.257927 15.2132034,50.3223753 Z" id="Combined-Shape" fill="url(#linearGradient-2)" fill-rule="nonzero" transform="translate(21.213203, 34.786797) scale(-1, -1) rotate(45.000000) translate(-21.213203, -34.786797) "></path>
        </g>
    </g>
</svg>