<?xml version="1.0" encoding="UTF-8"?>
<svg width="2rem" height="2rem" viewBox="0 0 42 45" version="1.1" xmlns="http://www.w3.org/2000/svg" xmlns:xlink="http://www.w3.org/1999/xlink">
    <!-- Generator: Sketch 57.1 (83088) - https://sketch.com -->
    <title>video</title>
    <desc>Created with Sketch.</desc>
    <defs>
        <linearGradient x1="100%" y1="0%" x2="0%" y2="100%" id="linearGradient-1">
            <stop stop-color="#5200FF" offset="0%"></stop>
            <stop stop-color="#FF05CB" offset="100%"></stop>
        </linearGradient>
        <linearGradient x1="100%" y1="45.5%" x2="0%" y2="54.5%" id="linearGradient-2">
            <stop stop-color="#FF1313" offset="0%"></stop>
            <stop stop-color="#9757FF" offset="100%"></stop>
        </linearGradient>
        <linearGradient x1="100%" y1="0%" x2="0%" y2="100%" id="linearGradient-3">
            <stop stop-color="#FF1313" offset="0%"></stop>
            <stop stop-color="#9757FF" offset="100%"></stop>
        </linearGradient>
    </defs>
    <g id="video" stroke="none" stroke-width="1" fill="none" fill-rule="evenodd">
        <g id="Group-3">
            <rect id="Rectangle" fill-opacity="0.2" fill="url(#linearGradient-1)" x="0" y="0" width="42" height="42" rx="12"></rect>
            <rect id="Rectangle" fill="url(#linearGradient-2)" x="11" y="39" width="20" height="6" rx="3"></rect>
            <path d="M24.7888544,12.5777088 L33.5527864,30.1055728 C34.0467649,31.0935298 33.6463162,32.2948759 32.6583592,32.7888544 C32.3806483,32.9277098 32.0744222,33 31.763932,33 L14.236068,33 C13.1314985,33 12.236068,32.1045695 12.236068,31 C12.236068,30.6895098 12.3083582,30.3832837 12.4472136,30.1055728 L21.2111456,12.5777088 C21.7051241,11.5897518 22.9064702,11.1893031 23.8944272,11.6832816 C24.281482,11.876809 24.595327,12.190654 24.7888544,12.5777088 Z" id="Triangle" fill="url(#linearGradient-3)" transform="translate(23.000000, 21.000000) rotate(90.000000) translate(-23.000000, -21.000000) "></path>
        </g>
    </g>
</svg>