<?xml version="1.0" encoding="UTF-8"?>
<svg width="96px" height="96px" viewBox="0 0 64 64" version="1.1" xmlns="http://www.w3.org/2000/svg" xmlns:xlink="http://www.w3.org/1999/xlink">
    <!-- Generator: Sketch 57.1 (83088) - https://sketch.com -->
    <title>Bot</title>
    <desc>Created with Sketch.</desc>
    <defs>
        <linearGradient x1="156.589664%" y1="-12.6479597%" x2="-38.0538275%" y2="100.040805%" id="linearGradient-1">
            <stop stop-color="#0073FF" offset="0%"></stop>
            <stop stop-color="#EC0569" offset="100%"></stop>
        </linearGradient>
    </defs>
    <g id="Bot" stroke="none" stroke-width="1" fill="none" fill-rule="evenodd">
        <g  transform="translate(43.000000, 10.000000)" stroke="url(#linearGradient-1)" stroke-linecap="round" stroke-width="10.8">
            <path d="M0.112650005,0.2 C-0.468574995,2.25714286 1.2751,4.31428571 3.6,5 C5.9249,4.31428571 7.66857499,2.25714286 7.08735,0.2" id="Heart"></path>
        </g>
        <rect id="Rectangle" fill="#FFFFFF" x="43" y="13" width="7" height="16" rx="3.5"></rect>
        <g id="empatheticbot" transform="translate(5.000000, 14.000000)" fill="#11153D">
            <path d="M41.6176471,0 C42.9333843,-6.85786212e-16 44,1.06661574 44,2.38235294 L44,9.61764706 C44,9.72729183 43.9925929,9.83520658 43.9782519,9.94091824 L44.1610683,10.0170878 C46.5648736,11.0321318 48.1534632,11.8078982 48.1534632,11.8078982 C50.064306,12.6660074 52.0135733,15.0276227 52.5265331,17.058288 C52.5265331,17.058288 53.7257215,20.4753698 53.9628837,27.6082474 C54.1987509,34.7021739 53.2333059,38.1086787 53.2333059,38.1086787 C52.8827236,40.1682775 50.9387127,42.3803667 48.9587423,43.053047 C48.9587423,43.053047 35.381515,48 27.0002132,48 C18.8208705,48 5.69299131,43.288582 5.06507166,43.0615257 L5.04168404,43.053047 C3.05546499,42.3902962 1.14671804,40.1660379 0.764421613,38.1072052 C0.764421613,38.1072052 -0.199620324,34.7411471 0.037542609,27.6082474 C0.274705542,20.4753477 1.47389352,17.0582806 1.47389352,17.0582806 C1.95844559,15.0202776 3.94474316,12.6769432 5.84696318,11.8078982 C5.84696318,11.8078982 19.1335179,6 27.0002132,6 C30.4047154,6 34.8243219,6.5952556 38.7427699,7.91750165 L39,8.007 L39,2.38235294 C39,1.06661574 40.0666157,1.12987542e-15 41.3823529,0 L41.6176471,0 Z M16.5935684,16.2268041 C11.8911247,16.2268041 8.07904085,20.0485384 8.07904085,24.7628866 C8.07904085,29.4772348 11.8911247,33.2989691 16.5935684,33.2989691 C21.2960121,33.2989691 25.1080959,29.4772348 25.1080959,24.7628866 C25.1080959,20.0485384 21.2960121,16.2268041 16.5935684,16.2268041 Z M37.406858,16.2268041 C32.7044142,16.2268041 28.8923304,20.0485384 28.8923304,24.7628866 C28.8923304,29.4772348 32.7044142,33.2989691 37.406858,33.2989691 C42.1093017,33.2989691 45.9213855,29.4772348 45.9213855,24.7628866 C45.9213855,20.0485384 42.1093017,16.2268041 37.406858,16.2268041 Z" id="Combined-Shape"></path>
        </g>
    </g>
</svg>