<?xml version="1.0" encoding="UTF-8"?>
<svg width="2rem" height="2rem" viewBox="0 0 72 72" version="1.1" xmlns="http://www.w3.org/2000/svg" xmlns:xlink="http://www.w3.org/1999/xlink">
    <!-- Generator: Sketch 56.2 (81672) - https://sketch.com -->
    <title>Robo Final</title>
    <desc>Created with Sketch.</desc>
    <g id="Robo-Final" stroke="none" stroke-width="1" fill="none" fill-rule="evenodd">
        <path d="M47.9117647,21.9730778 L47.9117647,17.6 C47.9117647,16.7163444 48.6281091,16 49.5117647,16 L51.0764706,16 C51.9601262,16 52.6764706,16.7163444 52.6764706,17.6 L52.6764706,23.8138803 C55.349064,24.9267441 57.1534632,25.8078982 57.1534632,25.8078982 C59.064306,26.6660074 61.0135733,29.0276227 61.5265331,31.058288 C61.5265331,31.058288 62.7257215,34.4753698 62.9628837,41.6082474 C63.1987509,48.7021739 62.2333059,52.1086787 62.2333059,52.1086787 C61.8827236,54.1682775 59.9387127,56.3803667 57.9587423,57.053047 C57.9587423,57.053047 44.381515,62 36.0002132,62 C27.6189114,62 14.041684,57.053047 14.041684,57.053047 C12.055465,56.3902962 10.146718,54.1660379 9.76442161,52.1072052 C9.76442161,52.1072052 8.80037968,48.7411471 9.03754261,41.6082474 C9.27470554,34.4753477 10.4738935,31.0582806 10.4738935,31.0582806 C10.9584456,29.0202776 12.9447432,26.6769432 14.8469632,25.8078982 C14.8469632,25.8078982 28.1335179,19.3195876 36.0002132,19.3195876 C39.4537503,19.3195876 43.9518431,20.5700633 47.911765,21.9730785 Z M25.5935684,47.2989691 C30.2960121,47.2989691 34.1080959,43.4772348 34.1080959,38.7628866 C34.1080959,34.0485384 30.2960121,30.2268041 25.5935684,30.2268041 C20.8911247,30.2268041 17.0790408,34.0485384 17.0790408,38.7628866 C17.0790408,43.4772348 20.8911247,47.2989691 25.5935684,47.2989691 Z M46.406858,47.2989691 C51.1093017,47.2989691 54.9213855,43.4772348 54.9213855,38.7628866 C54.9213855,34.0485384 51.1093017,30.2268041 46.406858,30.2268041 C41.7044142,30.2268041 37.8923304,34.0485384 37.8923304,38.7628866 C37.8923304,43.4772348 41.7044142,47.2989691 46.406858,47.2989691 Z" id="Combined-Shape" fill="#282828"></path>
        <path d="M49.3714543,13.2813568 L49.3768126,13.2791112 C49.3791869,13.277253 49.3808585,13.2760833 49.3818326,13.2755147 C49.3785163,13.2774505 49.3750548,13.2793994 49.3714543,13.2813568 Z M51.1254883,13.2809509 L51.1204303,13.2768247 L51.1181674,13.2755147 C51.1194307,13.2762521 51.1218673,13.2780005 51.1254883,13.2809509 Z M53.3611111,17.8071427 C53.3611111,16.5053286 52.3164422,15.4499998 51.0277778,15.4499998 L49.4722222,15.4499998 C48.1835578,15.4499998 47.1388889,16.5053286 47.1388889,17.8071427 L47.1388889,20.9499998 C46.0523244,20.0474224 45.300583,19.3572847 44.8836648,18.8795866 C43.441457,17.2271286 42.8405715,15.0345696 43.5448837,12.8556983 C44.2572181,10.6520096 46.6230227,9.44241422 48.8290563,10.1539914 C49.3661591,10.3272391 49.8442717,10.5983963 50.25,10.9413216 C50.6557283,10.5983963 51.1338409,10.3272391 51.6709437,10.1539914 C53.8769773,9.44241422 56.2427819,10.6520096 56.9551163,12.8556983 C57.6594285,15.0345696 57.058543,17.2271286 55.6163352,18.8795866 C54.9909578,19.5961337 54.22091,20.4861499 53.3611111,20.9499998 L53.3611111,17.8071427 Z" id="Combined-Shape" fill="#D0021B" fill-rule="nonzero"></path>
    </g>
</svg>