<?xml version="1.0" encoding="UTF-8" standalone="no"?><!DOCTYPE svg PUBLIC "-//W3C//DTD SVG 1.1//EN" "http://www.w3.org/Graphics/SVG/1.1/DTD/svg11.dtd"><svg width="100%" height="100%" viewBox="0 0 46 46" version="1.1" xmlns="http://www.w3.org/2000/svg" xmlns:xlink="http://www.w3.org/1999/xlink" xml:space="preserve" xmlns:serif="http://www.serif.com/" style="fill-rule:evenodd;clip-rule:evenodd;stroke-linejoin:round;stroke-miterlimit:2;"><rect id="Moon" x="0" y="0" width="46" height="46" style="fill:none;"/><g id="Moon1" serif:id="Moon"><g><circle cx="23" cy="23" r="21" style="fill:url(#_Linear1);"/><path d="M19.021,7.849c0.451,-0.163 0.954,0.016 1.202,0.427c0.247,0.41 0.171,0.939 -0.183,1.262c-2.197,2.08 -3.54,5.032 -3.54,8.296c0,6.439 5.227,11.666 11.666,11.666c3.335,0 6.345,-1.402 8.469,-3.65c0.287,-0.329 0.767,-0.409 1.145,-0.19c0.377,0.218 0.548,0.673 0.406,1.086c-1.948,5.961 -7.57,10.254 -14.186,10.254c-8.279,0 -15,-6.721 -15,-15c0,-6.535 4.188,-12.099 10.021,-14.151Z" style="fill:#fff;"/></g></g><defs><linearGradient id="_Linear1" x1="0" y1="0" x2="1" y2="0" gradientUnits="userSpaceOnUse" gradientTransform="matrix(42,0,0,42,2,23)"><stop offset="0" style="stop-color:#ff0025;stop-opacity:1"/><stop offset="1" style="stop-color:#1900ff;stop-opacity:1"/></linearGradient></defs></svg>