<?xml version="1.0" encoding="UTF-8"?>
<svg width="40px" height="40px" viewBox="0 0 32 32" version="1.1" xmlns="http://www.w3.org/2000/svg" xmlns:xlink="http://www.w3.org/1999/xlink">
    <!-- Generator: Sketch 57.1 (83088) - https://sketch.com -->
    <title>Podcast</title>
    <desc>Created with Sketch.</desc>
    <defs>
        <linearGradient x1="100%" y1="0%" x2="0%" y2="100%" id="linearGradient-1">
            <stop stop-color="#0073FF" offset="0%"></stop>
            <stop stop-color="#EC0569" offset="100%"></stop>
        </linearGradient>
        <linearGradient x1="100%" y1="15.2777778%" x2="0%" y2="84.7222222%" id="linearGradient-2">
            <stop stop-color="#0073FF" offset="0%"></stop>
            <stop stop-color="#EC0569" offset="100%"></stop>
        </linearGradient>
        <linearGradient x1="100%" y1="13.875%" x2="0%" y2="86.125%" id="linearGradient-3">
            <stop stop-color="#0073FF" offset="0%"></stop>
            <stop stop-color="#EC0569" offset="100%"></stop>
        </linearGradient>
        <linearGradient x1="100%" y1="3.07617188%" x2="0%" y2="96.9238281%" id="linearGradient-4">
            <stop stop-color="#0073FF" offset="0%"></stop>
            <stop stop-color="#EC0569" offset="100%"></stop>
        </linearGradient>
    </defs>
    <g id="Podcast" stroke="none" stroke-width="1" fill="none" fill-rule="evenodd">
        <rect id="Rectangle" fill-opacity="0.25" fill="url(#linearGradient-1)" x="4" y="4" width="24" height="24" rx="6"></rect>
        <circle id="Oval" fill="url(#linearGradient-1)" cx="16" cy="16" r="3"></circle>
        <path d="M20.2857143,20 C21.3739205,18.9440598 22,17.4461993 22,15.8333333 C22,12.6116723 19.3137085,10 16,10 C12.6862915,10 10,12.6116723 10,15.8333333 C10,17.4558528 10.6145789,18.9426143 11.7142857,20" id="Path" stroke="url(#linearGradient-2)" stroke-width="2" stroke-linecap="round" stroke-linejoin="round"></path>
        <path d="M22.6666667,23 C24.7329755,21.2203629 26,18.6078441 26,15.7142857 C26,10.3492339 21.5228475,6 16,6 C10.4771525,6 6,10.3492339 6,15.7142857 C6,18.6205237 7.25125545,21.2197788 9.33333333,23" id="Path" stroke="url(#linearGradient-3)" stroke-width="2" stroke-linecap="round" stroke-linejoin="round"></path>
        <path d="M20,28 C20,24.4101491 18.209139,21 16,21 C13.790861,21 12,24.4101491 12,28 C13,29 19,29 20,28 Z" id="Oval" fill="url(#linearGradient-4)"></path>
    </g>
</svg>