<?xml version="1.0" encoding="UTF-8"?>
<svg width="32px" height="32px" viewBox="0 0 32 32" version="1.1" xmlns="http://www.w3.org/2000/svg" xmlns:xlink="http://www.w3.org/1999/xlink">
    <!-- Generator: Sketch 58 (84663) - https://sketch.com -->
    <title>Podcast</title>
    <desc>Created with Sketch.</desc>
    <g id="Podcast" stroke="none" stroke-width="1" fill="none" fill-rule="evenodd">
        <circle id="Oval" fill="#000000" cx="16" cy="16" r="3"></circle>
        <path d="M21,21 C22.2695739,19.7328718 23,17.9354392 23,16 C23,12.1340068 19.8659932,9 16,9 C12.1340068,9 9,12.1340068 9,16 C9,17.9470233 9.7170087,19.7311372 11,21" id="Path" stroke="#000000" stroke-width="3" stroke-linecap="round" stroke-linejoin="round"></path>
        <path d="M24,25 C26.4795706,22.8016247 28,19.5743957 28,16 C28,9.372583 22.627417,4 16,4 C9.372583,4 4,9.372583 4,16 C4,19.5900587 5.50150654,22.8009032 8,25" id="Path" stroke="#000000" stroke-width="3" stroke-linecap="round" stroke-linejoin="round"></path>
        <path d="M20,28 C20,24.4101491 18.209139,21 16,21 C13.790861,21 12,24.4101491 12,28 C13,29 19,29 20,28 Z" id="Oval" fill="#000000"></path>
    </g>
</svg>