<?xml version="1.0" encoding="UTF-8"?>
<svg width="36px" height="36px" viewBox="0 0 48 48" version="1.1" xmlns="http://www.w3.org/2000/svg" xmlns:xlink="http://www.w3.org/1999/xlink">
    <!-- Generator: Sketch 58 (84663) - https://sketch.com -->
    <title>sun</title>
    <desc>Created with Sketch.</desc>
    <defs>
        <linearGradient x1="100%" y1="0%" x2="0%" y2="100%" id="linearGradient-1">
            <stop stop-color="#0073FF" offset="0%"></stop>
            <stop stop-color="#EC0569" offset="100%"></stop>
        </linearGradient>
        <linearGradient x1="94.6844112%" y1="4.98185515%" x2="5.9949259%" y2="95.1994694%" id="linearGradient-2">
            <stop stop-color="#0073FF" offset="0%"></stop>
            <stop stop-color="#EC0569" offset="100%"></stop>
        </linearGradient>
    </defs>
    <g id="sun" stroke="none" stroke-width="1" fill="none" fill-rule="evenodd">
        <path d="M23.7648312,44.654841 L21.1749986,47.4613161 C21.0551444,47.5911963 20.8526946,47.5993239 20.7228145,47.4794697 C20.6959358,47.4546659 20.6735083,47.4254378 20.6565064,47.3930553 L18.8812894,44.0119105 C18.7991346,43.8554354 18.6056868,43.7951868 18.4492116,43.8773416 C18.4416317,43.8813214 18.4342146,43.8856036 18.4269781,43.8901782 L15.1990227,45.930727 C15.049637,46.025161 14.851982,45.9806139 14.7575479,45.8312281 C14.7380049,45.8003128 14.7239063,45.766276 14.7158649,45.7305965 L13.8762417,42.0052014 C13.837385,41.8327948 13.6661222,41.7245312 13.4937156,41.7633879 C13.4853639,41.7652702 13.4770912,41.7674869 13.4689173,41.7700326 L9.82281894,42.905595 C9.65408206,42.9581475 9.47469165,42.8639613 9.42213924,42.6952245 C9.41126354,42.6603044 9.4064548,42.6237784 9.40792195,42.5872334 L9.56111135,38.7714676 C9.56820077,38.5948787 9.43079431,38.4459781 9.25420544,38.4388886 C9.24565121,38.4385452 9.23708664,38.4385452 9.2285324,38.4388886 L5.41276661,38.5920781 C5.23617774,38.5991675 5.08727707,38.461761 5.08018766,38.2851721 C5.07872051,38.2486271 5.08352925,38.2121011 5.09440495,38.1771811 L6.22996741,34.5310827 C6.28251983,34.3623458 6.18833371,34.1829554 6.01959683,34.130403 C6.01142296,34.1278573 6.00315022,34.1256406 5.99479858,34.1237583 L2.26940352,33.2841351 C2.0969969,33.2452783 1.9887333,33.0740156 2.02759002,32.9016089 C2.0356314,32.8659295 2.04972993,32.8318926 2.06927302,32.8009773 L4.10982183,29.5730219 C4.20425588,29.4236361 4.15970873,29.2259811 4.01032299,29.1315471 C4.00308652,29.1269726 3.99566938,29.1226903 3.98808948,29.1187106 L0.606944674,27.3434936 C0.450469519,27.2613388 0.390220986,27.067891 0.472375808,26.9114158 C0.489377716,26.8790333 0.511805237,26.8498052 0.538683885,26.8250014 L3.34515902,24.2351688 C3.47503918,24.1153146 3.48316681,23.9128649 3.3633126,23.7829847 C3.35750668,23.7766932 3.35145061,23.7706371 3.34515902,23.7648312 L0.538683885,21.1749986 C0.408803725,21.0551444 0.40067609,20.8526946 0.520530305,20.7228145 C0.545334088,20.6959358 0.574562201,20.6735083 0.606944674,20.6565064 L3.98808948,18.8812894 C4.14456464,18.7991346 4.20481317,18.6056868 4.12265835,18.4492116 C4.11867865,18.4416317 4.11439636,18.4342146 4.10982183,18.4269781 L2.06927302,15.1990227 C1.97483897,15.049637 2.01938612,14.851982 2.16877186,14.7575479 C2.19968718,14.7380049 2.23372404,14.7239063 2.26940352,14.7158649 L5.99479858,13.8762417 C6.16720521,13.837385 6.2754688,13.6661222 6.23661209,13.4937156 C6.23472981,13.4853639 6.23251313,13.4770912 6.22996741,13.4689173 L5.09440495,9.82281894 C5.04185254,9.65408206 5.13603866,9.47469165 5.30477553,9.42213924 C5.33969557,9.41126354 5.37622161,9.4064548 5.41276661,9.40792195 L9.2285324,9.56111135 C9.40512127,9.56820077 9.55402194,9.43079431 9.56111135,9.25420544 C9.56145478,9.24565121 9.56145478,9.23708664 9.56111135,9.2285324 L9.40792195,5.41276661 C9.40083253,5.23617774 9.53823899,5.08727707 9.71482786,5.08018766 C9.75137286,5.07872051 9.78789891,5.08352925 9.82281894,5.09440495 L13.4689173,6.22996741 C13.6376542,6.28251983 13.8170446,6.18833371 13.869597,6.01959683 C13.8721427,6.01142296 13.8743594,6.00315022 13.8762417,5.99479858 L14.7158649,2.26940352 C14.7547217,2.0969969 14.9259844,1.9887333 15.0983911,2.02759002 C15.1340705,2.0356314 15.1681074,2.04972993 15.1990227,2.06927302 L18.4269781,4.10982183 C18.5763639,4.20425588 18.7740189,4.15970873 18.8684529,4.01032299 C18.8730274,4.00308652 18.8773097,3.99566938 18.8812894,3.98808948 L20.6565064,0.606944674 C20.7386612,0.450469519 20.932109,0.390220986 21.0885842,0.472375808 C21.1209667,0.489377716 21.1501948,0.511805237 21.1749986,0.538683885 L23.7648312,3.34515902 C23.8846854,3.47503918 24.0871351,3.48316681 24.2170153,3.3633126 C24.2233068,3.35750668 24.2293629,3.35145061 24.2351688,3.34515902 L26.8250014,0.538683885 C26.9448556,0.408803725 27.1473054,0.40067609 27.2771855,0.520530305 C27.3040642,0.545334088 27.3264917,0.574562201 27.3434936,0.606944674 L29.1187106,3.98808948 C29.2008654,4.14456464 29.3943132,4.20481317 29.5507884,4.12265835 C29.5583683,4.11867865 29.5657854,4.11439636 29.5730219,4.10982183 L32.8009773,2.06927302 C32.950363,1.97483897 33.148018,2.01938612 33.2424521,2.16877186 C33.2619951,2.19968718 33.2760937,2.23372404 33.2841351,2.26940352 L34.1237583,5.99479858 C34.162615,6.16720521 34.3338778,6.2754688 34.5062844,6.23661209 C34.5146361,6.23472981 34.5229088,6.23251313 34.5310827,6.22996741 L38.1771811,5.09440495 C38.3459179,5.04185254 38.5253083,5.13603866 38.5778608,5.30477553 C38.5887365,5.33969557 38.5935452,5.37622161 38.5920781,5.41276661 L38.4388886,9.2285324 C38.4317992,9.40512127 38.5692057,9.55402194 38.7457946,9.56111135 C38.7543488,9.56145478 38.7629134,9.56145478 38.7714676,9.56111135 L42.5872334,9.40792195 C42.7638223,9.40083253 42.9127229,9.53823899 42.9198123,9.71482786 C42.9212795,9.75137286 42.9164707,9.78789891 42.905595,9.82281894 L41.7700326,13.4689173 C41.7174802,13.6376542 41.8116663,13.8170446 41.9804032,13.869597 C41.988577,13.8721427 41.9968498,13.8743594 42.0052014,13.8762417 L45.7305965,14.7158649 C45.9030031,14.7547217 46.0112667,14.9259844 45.97241,15.0983911 C45.9643686,15.1340705 45.9502701,15.1681074 45.930727,15.1990227 L43.8901782,18.4269781 C43.7957441,18.5763639 43.8402913,18.7740189 43.989677,18.8684529 C43.9969135,18.8730274 44.0043306,18.8773097 44.0119105,18.8812894 L47.3930553,20.6565064 C47.5495305,20.7386612 47.609779,20.932109 47.5276242,21.0885842 C47.5106223,21.1209667 47.4881948,21.1501948 47.4613161,21.1749986 L44.654841,23.7648312 C44.5249608,23.8846854 44.5168332,24.0871351 44.6366874,24.2170153 C44.6424933,24.2233068 44.6485494,24.2293629 44.654841,24.2351688 L47.4613161,26.8250014 C47.5911963,26.9448556 47.5993239,27.1473054 47.4794697,27.2771855 C47.4546659,27.3040642 47.4254378,27.3264917 47.3930553,27.3434936 L44.0119105,29.1187106 C43.8554354,29.2008654 43.7951868,29.3943132 43.8773416,29.5507884 C43.8813214,29.5583683 43.8856036,29.5657854 43.8901782,29.5730219 L45.930727,32.8009773 C46.025161,32.950363 45.9806139,33.148018 45.8312281,33.2424521 C45.8003128,33.2619951 45.766276,33.2760937 45.7305965,33.2841351 L42.0052014,34.1237583 C41.8327948,34.162615 41.7245312,34.3338778 41.7633879,34.5062844 C41.7652702,34.5146361 41.7674869,34.5229088 41.7700326,34.5310827 L42.905595,38.1771811 C42.9581475,38.3459179 42.8639613,38.5253083 42.6952245,38.5778608 C42.6603044,38.5887365 42.6237784,38.5935452 42.5872334,38.5920781 L38.7714676,38.4388886 C38.5948787,38.4317992 38.4459781,38.5692057 38.4388886,38.7457946 C38.4385452,38.7543488 38.4385452,38.7629134 38.4388886,38.7714676 L38.5920781,42.5872334 C38.5991675,42.7638223 38.461761,42.9127229 38.2851721,42.9198123 C38.2486271,42.9212795 38.2121011,42.9164707 38.1771811,42.905595 L34.5310827,41.7700326 C34.3623458,41.7174802 34.1829554,41.8116663 34.130403,41.9804032 C34.1278573,41.988577 34.1256406,41.9968498 34.1237583,42.0052014 L33.2841351,45.7305965 C33.2452783,45.9030031 33.0740156,46.0112667 32.9016089,45.97241 C32.8659295,45.9643686 32.8318926,45.9502701 32.8009773,45.930727 L29.5730219,43.8901782 C29.4236361,43.7957441 29.2259811,43.8402913 29.1315471,43.989677 C29.1269726,43.9969135 29.1226903,44.0043306 29.1187106,44.0119105 L27.3434936,47.3930553 C27.2613388,47.5495305 27.067891,47.609779 26.9114158,47.5276242 C26.8790333,47.5106223 26.8498052,47.4881948 26.8250014,47.4613161 L24.2351688,44.654841 C24.1153146,44.5249608 23.9128649,44.5168332 23.7829847,44.6366874 C23.7766932,44.6424933 23.7706371,44.6485494 23.7648312,44.654841 Z" id="Star" fill-opacity="0.5" fill="url(#linearGradient-1)" style="mix-blend-mode: lighten;"></path>
        <circle id="Oval" fill="url(#linearGradient-2)" cx="24" cy="24" r="16"></circle>
    </g>
</svg>