<?xml version="1.0" encoding="UTF-8" standalone="no"?><!DOCTYPE svg PUBLIC "-//W3C//DTD SVG 1.1//EN" "http://www.w3.org/Graphics/SVG/1.1/DTD/svg11.dtd"><svg width="100%" height="100%" viewBox="0 0 46 46" version="1.1" xmlns="http://www.w3.org/2000/svg" xmlns:xlink="http://www.w3.org/1999/xlink" xml:space="preserve" xmlns:serif="http://www.serif.com/" style="fill-rule:evenodd;clip-rule:evenodd;stroke-linejoin:round;stroke-miterlimit:2;"><rect id="Sun" x="0" y="0" width="46" height="46" style="fill:none;"/><g id="Sun1" serif:id="Sun"><g><circle cx="23" cy="23" r="21" style="fill:url(#_Linear1);"/><path d="M23,5c-0.678,0.362 -1.237,0.858 -1.677,1.488c-0.808,0.082 -1.608,0.223 -2.394,0.422c-0.629,-0.442 -1.324,-0.717 -2.085,-0.824c-0.514,0.571 -0.87,1.229 -1.068,1.971c-0.73,0.353 -1.434,0.76 -2.105,1.216c-0.742,-0.2 -1.489,-0.221 -2.241,-0.062c-0.287,0.713 -0.397,1.452 -0.329,2.218c-0.565,0.582 -1.088,1.204 -1.562,1.862c-0.766,0.066 -1.475,0.303 -2.127,0.709c-0.026,0.768 0.124,1.5 0.449,2.196c-0.332,0.741 -0.61,1.504 -0.831,2.285c-0.697,0.324 -1.283,0.788 -1.757,1.393c0.239,0.731 0.63,1.368 1.174,1.91c-0.059,0.81 -0.059,1.622 0,2.432c-0.544,0.542 -0.935,1.179 -1.174,1.91c0.474,0.605 1.06,1.069 1.757,1.393c0.221,0.781 0.499,1.544 0.831,2.285c-0.325,0.696 -0.475,1.428 -0.449,2.196c0.652,0.406 1.361,0.643 2.127,0.709c0.474,0.658 0.997,1.28 1.562,1.862c-0.068,0.766 0.042,1.505 0.329,2.218c0.752,0.159 1.499,0.138 2.241,-0.062c0.671,0.456 1.375,0.863 2.105,1.216c0.198,0.742 0.554,1.4 1.068,1.971c0.761,-0.107 1.456,-0.382 2.085,-0.824c0.786,0.199 1.586,0.34 2.394,0.422c0.44,0.63 0.999,1.126 1.677,1.488c0.678,-0.362 1.237,-0.858 1.677,-1.488c0.808,-0.082 1.608,-0.223 2.394,-0.422c0.629,0.442 1.324,0.717 2.085,0.824c0.514,-0.571 0.87,-1.229 1.068,-1.971c0.73,-0.353 1.434,-0.76 2.105,-1.216c0.742,0.2 1.489,0.221 2.241,0.062c0.287,-0.713 0.397,-1.452 0.329,-2.218c0.565,-0.582 1.088,-1.204 1.562,-1.862c0.766,-0.066 1.475,-0.303 2.127,-0.709c0.026,-0.768 -0.124,-1.5 -0.449,-2.196c0.332,-0.741 0.61,-1.504 0.831,-2.285c0.697,-0.324 1.283,-0.788 1.757,-1.393c-0.239,-0.731 -0.63,-1.368 -1.174,-1.91c0.059,-0.81 0.059,-1.622 0,-2.432c0.544,-0.542 0.935,-1.179 1.174,-1.91c-0.474,-0.605 -1.06,-1.069 -1.757,-1.393c-0.221,-0.781 -0.499,-1.544 -0.831,-2.285c0.325,-0.696 0.475,-1.428 0.449,-2.196c-0.652,-0.406 -1.361,-0.643 -2.127,-0.709c-0.474,-0.658 -0.997,-1.28 -1.562,-1.862c0.068,-0.766 -0.042,-1.505 -0.329,-2.218c-0.752,-0.159 -1.499,-0.138 -2.241,0.062c-0.671,-0.456 -1.375,-0.863 -2.105,-1.216c-0.198,-0.742 -0.554,-1.4 -1.068,-1.971c-0.761,0.107 -1.456,0.382 -2.085,0.824c-0.786,-0.199 -1.586,-0.34 -2.394,-0.422c-0.44,-0.63 -0.999,-1.126 -1.677,-1.488Zm0,2.7c8.444,0 15.3,6.856 15.3,15.3c0,8.444 -6.856,15.3 -15.3,15.3c-8.444,0 -15.3,-6.856 -15.3,-15.3c0,-8.444 6.856,-15.3 15.3,-15.3Z" style="fill:#fff;"/><circle cx="23" cy="23" r="14" style="fill:#fff;"/></g></g><defs><linearGradient id="_Linear1" x1="0" y1="0" x2="1" y2="0" gradientUnits="userSpaceOnUse" gradientTransform="matrix(42,0,0,42,2,23)"><stop offset="0" style="stop-color:#ff0025;stop-opacity:1"/><stop offset="1" style="stop-color:#1900ff;stop-opacity:1"/></linearGradient></defs></svg>